<svg width="316" height="316" viewBox="0 0 316 316" fill="none" xmlns="http://www.w3.org/2000/svg">
<rect width="316" height="316" rx="65" fill="#22223B"/>
<path d="M247.08 111.24C247.08 147.827 243.533 186.747 236.44 228H169.52C172.507 205.973 174.467 182.267 175.4 156.88C165.693 150.907 154.867 147.267 142.92 145.96C141.8 173.4 138.813 200.747 133.96 228H70.4C72.8267 209.707 74.04 187.867 74.04 162.48C74.04 136.907 72.36 112.08 69 88H142.92C143.293 95.6533 143.48 107.04 143.48 122.16C154.307 125.52 165.04 130.093 175.68 135.88C175.68 118.52 175.027 102.56 173.72 88H246.52C246.893 98.4533 247.08 106.2 247.08 111.24Z" fill="#FAFFB4"/>
<path d="M132.877 162.237C134.65 162.704 136.894 163.266 138.721 163.454C141.33 163.722 144.276 164.294 147.427 164.577C150.434 164.848 153.377 165.608 155.666 166.121C158.323 166.716 160.579 167.383 163.803 167.991C168.308 168.841 172.19 170.566 174.061 171.314C177.383 172.643 182.673 174.406 186.606 175.809C189.589 176.873 191.948 177.029 192.847 177.265C194.393 177.671 189.813 176.658 188.033 176.47C184.135 176.058 180.072 174.692 178.248 174.317C176.315 173.92 173.522 173.102 172.067 172.865C169.211 172.399 166.028 171.788 164.347 171.462C163.512 171.3 162.118 171.136 154.913 169.882C147.708 168.628 134.731 166.31 127.768 165.117C120.264 163.83 118.563 163.737 116.461 163.41C113.061 162.881 111.252 162.987 111.016 162.801C109.791 161.831 118.136 163.075 124.279 163.685C127.029 163.959 131.844 164.659 135.3 165.225C138.756 165.791 140.703 166.254 142.077 166.539C143.45 166.824 144.192 166.917 149.394 168.17C154.596 169.423 164.236 171.833 170.824 173.584C177.412 175.335 180.656 176.355 182.745 177.066C185.695 178.069 186.99 178.807 188.434 179.506C193.48 181.951 197.19 183.113 199.299 184.189C201.711 185.419 203.554 186.203 207.157 187.465C211.016 188.818 212.644 188.545 214.002 188.874C214.326 188.953 214.61 188.922 214.29 188.69C211.496 186.668 207.796 186.119 204.702 184.853C201.949 183.727 198.706 182.557 195.902 181.436C193.502 180.477 191.965 180.029 189.16 178.908C187.787 178.359 186.069 177.877 184.246 177.269C182.919 176.826 177.957 175.361 171.171 173.021C167.503 171.756 165.842 171.136 164.298 170.34C161.687 168.994 160.41 168.793 159.239 168.605C157.701 168.358 156.107 167.299 154.325 166.733C152.8 166.249 151.141 165.423 149.27 165.001C147.486 164.6 145.343 163.552 142.437 162.428C140.339 161.617 136.731 160.277 134.525 159.572C130.523 158.293 126.619 156.906 124.737 156.294C123.962 156.042 123.145 155.684 122.581 155.498C121.661 155.192 125.748 155.586 128.467 156.243C130.312 156.689 133.327 157.271 139.593 159C142.472 159.794 144.481 160.268 146.113 160.829C148.334 161.592 151.677 162.232 154.951 163.121C156.902 163.651 158.244 163.92 160.062 164.573C162.846 165.573 166.472 166.538 169.559 167.66C172.921 168.882 175.657 170.378 177.624 171.316C180.084 172.488 181.746 173.282 186.739 175.104C189.165 175.989 192.496 177.119 196.285 178.101C199.97 179.055 204.942 180.765 207.634 181.617C209.326 182.153 211.605 182.737 213.44 183.489C213.758 183.62 214.048 183.585 214.053 183.631C214.181 185.04 210.408 183.68 209.237 183.119C207.999 182.525 206.757 182.742 204.748 182.324C201.26 181.597 199.83 180.967 197.677 180.31C196.303 179.89 194.959 179.467 193.788 179.325C192.328 179.148 191.027 178.905 189.856 178.577C188.54 178.208 187.375 178.248 186.25 177.969C185.1 177.683 184.005 177.22 182.88 176.799C181.638 176.334 180.634 175.349 179.509 174.599C178.384 173.849 177.263 173.102 176.138 172.399C175.089 171.742 173.893 171.136 172.768 170.386C171.72 169.688 170.522 169.636 169.397 169.215C168.199 168.766 163.073 167.119 159.847 166.218C158.301 165.786 156.197 165.423 154.839 165.281C153.468 165.138 151.798 164.861 150.111 164.719C148.705 164.392 146.281 164.204 144.307 163.971C143.838 163.923 143.282 163.923 142.709 163.923" stroke="#FAFFB4" stroke-width="7" stroke-linecap="round"/>
<path d="M228.714 58.2252C229.082 59.3295 229.456 60.6346 230.195 64.8788C230.804 68.3778 231.67 74.6443 231.776 109.708C231.882 144.771 231.146 208.451 230.675 241.716C230.203 274.981 230.019 275.901 229.924 277.019C229.83 278.137 229.83 279.426 229.83 279.537C229.83 282.61 230.945 273.146 232.147 268.319C233.606 262.457 235.028 256.994 236.425 251.677C237.705 246.804 238.563 242.661 238.845 239.493C239.326 234.08 240.426 226.298 241.073 220.919C242.374 210.104 243.773 202.316 244.79 194.157C245.606 187.617 246.003 183.187 246.929 178.242C247.807 173.553 248.234 168.296 248.789 164.116C249.635 157.742 249.718 151.375 250.091 143.868C250.292 139.842 251.023 129.696 250.931 116.412C250.868 107.292 249.907 103.233 249.444 100.065C249.012 97.1051 248.424 93.0154 248.142 89.4684C247.901 86.4297 247.119 83.155 246.564 80.3581C245.826 76.6396 245.446 71.4542 244.799 68.8246C244.294 66.7713 243.404 73.2724 241.363 83.6514C240.8 89.078 240.426 92.4131 239.963 98.2524C239.869 101.303 239.869 106.456 239.869 111.766" stroke="#22223B" stroke-width="28" stroke-linecap="round"/>
<path d="M87.0549 71.6104C87.0549 72.3465 87.2389 73.8301 87.5178 79.8283C88.1468 93.3581 87.4286 103.757 87.1497 106.356C86.9507 108.21 86.6868 112.106 84.5647 131.754C82.7809 148.271 79.6819 178.089 77.0579 197.221C74.4338 216.354 72.4093 223.9 70.8143 229.167C67.2034 241.092 66.0514 244.301 65.028 246.172C62.8121 250.223 65.4881 233.543 65.767 218.713C66.0285 204.806 65.8618 177.933 65.9538 163.538C66.0529 148.037 66.4195 145.061 66.5115 141.905C66.6377 137.574 68.2711 129.111 69.2053 117.658C69.5652 113.245 70.1339 108.81 70.5075 101.571C70.8564 94.8116 71.807 89.2899 72.0886 85.7512C72.7443 77.5127 72.5543 113.818 72.6464 112.427C72.8531 109.301 73.6698 103.802 74.5956 96.8246C75.3508 91.133 77.2001 84.633 77.3869 83.6988C78.2477 79.3951 74.4171 94.644 73.2097 97.8118C72.9252 98.558 72.744 99.2953 72.5571 99.3064C71.9966 96.7186 72.3647 93.3724 73.2933 91.2307C73.6642 90.7623 74.2163 90.3942 75.3429 90.5726" stroke="#22223B" stroke-width="28" stroke-linecap="round"/>
</svg>
